#!OML:ASF H:\Male1\Project 1\Capture day 1\Session 1\Male1.ASF
:FULLY-SPECIFIED
:DEGREES
590
root 20.9464 15.3168 -0.963644 -550.543 -84.3215 547.828
lowerback 6.72308 1.29443 1.22234
upperback 3.82109 1.68297 -0.342621
thorax 0.216037 0.818987 -1.14434
lowerneck -5.0915 3.7629 7.61194
upperneck 0.549265 4.65203 -4.93179
head 1.38875 2.26818 -2.78423
rclavicle -6.98231e-015 7.05686e-015
rhumerus -33.6842 19.1149 -91.1027
rradius 41.5124
rwrist -27.2269
rhand -16.2281 -2.2273
rfingers 7.12502
rthumb 9.98009 -31.9707
lclavicle -6.98231e-015 7.05686e-015
lhumerus -24.0786 -10.3391 90.1829
lradius 29.2283
lwrist -2.11787
lhand -21.5473 7.31035
lfingers 7.12502
lthumb 4.84595 37.2349
rfemur -9.53742 14.197 22.3191
rtibia 27.574
rfoot -29.6213 -30.4891
rtoes -12.3802
lfemur -7.7674 -5.00115 -17.3079
ltibia 40.3269
lfoot -19.8174 15.1259
ltoes -19.858
591
root 20.9141 15.3204 -1.00109 -551.982 -84.3944 549.281
lowerback 6.87003 1.30827 1.46715
upperback 3.87009 1.71403 -0.300123
thorax 0.192728 0.836656 -1.24274
lowerneck -5.23778 3.73753 7.591
upperneck 0.45022 4.60375 -4.88086
head 1.37695 2.24141 -2.76311
rclavicle -3.57812e-015 2.88238e-015
rhumerus -33.4723 18.9713 -90.889
rradius 41.165
rwrist -27.2813
rhand -16.4283 -2.22571
rfingers 7.12502
rthumb 9.78691 -31.9783
lclavicle -3.57812e-015 2.88238e-015
lhumerus -24.3799 -8.57481 89.3842
lradius 28.6787
lwrist -2.72861
lhand -21.7783 7.45153
lfingers 7.12502
lthumb 4.62287 37.3811
rfemur -9.22437 14.0867 22.6478
rtibia 27.3036
rfoot -29.6493 -30.5368
rtoes -12.3643
lfemur -8.98093 -4.24035 -16.7513
ltibia 42.0669
lfoot -19.4911 13.9377
ltoes -21.3616
592
root 20.8814 15.3267 -1.03358 -552.362 -84.4204 549.695
lowerback 6.98769 1.33475 1.59843
upperback 3.90698 1.75591 -0.291561
thorax 0.171205 0.858537 -1.31263
lowerneck -5.34787 3.71618 7.57639
upperneck 0.358862 4.56305 -4.8128
head 1.36134 2.21929 -2.7376
rclavicle 4.46644e-014 -6.65929e-015
rhumerus -33.2566 18.8401 -90.6942
rradius 40.814
rwrist -27.2941
rhand -16.616 -2.34446
rfingers 7.12502
rthumb 9.60585 -32.1055
lclavicle 4.46644e-014 -6.65929e-015
lhumerus -24.7564 -6.82535 88.5673
lradius 28.1544
lwrist -3.44204
lhand -21.9702 7.008
lfingers 7.12502
lthumb 4.43756 36.9415
rfemur -8.97805 14.0457 22.8478
rtibia 27.0653
rfoot -29.5946 -30.6797
rtoes -12.5253
lfemur -10.0677 -3.64181 -16.3441
ltibia 43.3933
lfoot -19.4728 12.9948
ltoes -22.4507
593
root 20.848 15.3345 -1.06127 -551.769 -84.4081 549.156
lowerback 7.06933 1.36899 1.62457
upperback 3.93326 1.80209 -0.313502
thorax 0.156464 0.881534 -1.35458
lowerneck -5.43081 3.69239 7.57005
upperneck 0.287316 4.52129 -4.74442
head 1.34755 2.1973 -2.71392
rclavicle -1.64619e-014 3.97569e-015
rhumerus -33.0328 18.7351 -90.5191
rradius 40.4641
rwrist -27.2494
rhand -16.7739 -2.56716
rfingers 7.12502
rthumb 9.45352 -32.3351
lclavicle -1.64619e-014 3.97569e-015
lhumerus -25.1853 -5.0443 87.7178
lradius 27.6631
lwrist -4.1527
lhand -21.9776 5.96655
lfingers 7.12502
lthumb 4.43037 35.9002
rfemur -8.78599 14.1071 22.9343
rtibia 26.8571
rfoot -29.5473 -30.8834
rtoes -12.6869
lfemur -10.9945 -3.1829 -16.0857
ltibia 44.2717
lfoot -19.7025 12.4522
ltoes -23.2966
594
root 20.8137 15.3435 -1.08407 -550.484 -84.3637 547.936
lowerback 7.11937 1.40493 1.57497
upperback 3.95467 1.8458 -0.359133
thorax 0.15234 0.902606 -1.37759
lowerneck -5.50005 3.6745 7.57717
upperneck 0.22973 4.48829 -4.68674
head 1.33725 2.17991 -2.69621
rclavicle 1.43995e-014 -6.75868e-015
rhumerus -32.7905 18.668 -90.3633
rradius 40.1073
rwrist -27.1455
rhand -16.9022 -2.79985
rfingers 7.12502
rthumb 9.32972 -32.5734
lclavicle 1.43995e-014 -6.75868e-015
lhumerus -25.6546 -3.21531 86.8322
lradius 27.2045
lwrist -4.8534
lhand -21.8125 4.41129
lfingers 7.12502
lthumb 4.58981 34.3416
rfemur -8.61871 14.2726 22.9379
rtibia 26.6793
rfoot -29.608 -31.0692
rtoes -12.6652
lfemur -11.7497 -2.87174 -15.95
ltibia 44.7009
lfoot -20.1586 12.3246
ltoes -23.4848
595
root 20.7786 15.3522 -1.10196 -548.921 -84.2862 546.436
lowerback 7.14874 1.43804 1.49294
upperback 3.97664 1.88342 -0.418582
thorax 0.159346 0.920402 -1.3957
lowerneck -5.56216 3.66495 7.59996
upperneck 0.189477 4.46696 -4.65091
head 1.33331 2.1684 -2.68844
rclavicle 1.39149e-014 8.94531e-016
rhumerus -32.5375 18.6389 -90.228
rradius 39.7497
rwrist -26.9969
rhand -17.0165 -2.91726
rfingers 7.12502
rthumb 9.21938 -32.6957
lclavicle 1.39149e-014 8.94531e-016
lhumerus -26.1617 -1.34347 85.9091
lradius 26.7942
lwrist -5.53138
lhand -21.4684 2.80776
lfingers 7.12502
lthumb 4.92206 32.7306
rfemur -8.45822 14.5197 22.9006
rtibia 26.5369
rfoot -29.7985 -31.2028
rtoes -12.4404
lfemur -12.3144 -2.67782 -15.8986
ltibia 44.6997
lfoot -20.7434 12.6552
ltoes -23.3322
596
root 20.7428 15.3589 -1.11503 -547.377 -84.1809 544.95
lowerback 7.16312 1.46597 1.4108
upperback 3.99534 1.91405 -0.488343
thorax 0.171354 0.934887 -1.42353
lowerneck -5.60836 3.655 7.62695
upperneck 0.164814 4.44662 -4.62035
head 1.33199 2.15775 -2.68338
rclavicle -1.31695e-014 -1.39149e-015
rhumerus -32.294 18.6359 -90.1231
rradius 39.4067
rwrist -26.8218
rhand -17.1329 -2.88247
rfingers 7.12502
rthumb 9.1071 -32.6658
lclavicle -1.31695e-014 -1.39149e-015
lhumerus -26.7155 0.521968 84.9552
lradius 26.4469
lwrist -6.14677
lhand -20.9601 1.73745
lfingers 7.12502
lthumb 5.41291 31.6483
rfemur -8.31045 14.8067 22.8466
rtibia 26.4348
rfoot -30.0644 -31.2906
rtoes -12.1528
lfemur -12.6799 -2.58153 -15.899
ltibia 44.2986
lfoot -21.4173 13.3764
ltoes -23.0733
597
root 20.7062 15.3632 -1.12345 -546.019 -84.0604 543.653
lowerback 7.1558 1.48599 1.33896
upperback 4.0069 1.93497 -0.560921
thorax 0.188114 0.944871 -1.45889
lowerneck -5.64947 3.6587 7.68695
upperneck 0.158513 4.44398 -4.62325
head 1.33904 2.15586 -2.69514
rclavicle 2.33572e-015 1.59028e-015
rhumerus -32.0739 18.6573 -90.0479
rradius 39.0977
rwrist -26.6402
rhand -17.2497 -2.74742
rfingers 7.12502
rthumb 8.99444 -32.5357
lclavicle 2.33572e-015 1.59028e-015
lhumerus -27.3184 2.32916 83.9919
lradius 26.1574
lwrist -6.65125
lhand -20.3437 1.47831
lfingers 7.12502
lthumb 6.00799 31.3731
rfemur -8.1897 15.0923 22.7879
rtibia 26.3857
rfoot -30.3563 -31.3395
rtoes -11.919
lfemur -12.8719 -2.58994 -15.928
ltibia 43.5269
lfoot -22.1463 14.3082
ltoes -22.7865
598
root 20.6689 15.3653 -1.12734 -545.022 -83.9316 542.723
lowerback 7.12313 1.49566 1.28348
upperback 4.00908 1.94361 -0.62082
thorax 0.208883 0.949059 -1.48898
lowerneck -5.67754 3.6672 7.75964
upperneck 0.179189 4.44925 -4.6493
head 1.35424 2.15819 -2.71692
rclavicle -4.77083e-015 -5.76476e-015
rhumerus -31.9029 18.705 -89.9936
rradius 38.8618
rwrist -26.4838
rhand -17.3736 -2.56039
rfingers 7.12502
rthumb 8.87485 -32.3538
lclavicle -4.77083e-015 -5.76476e-015
lhumerus -27.9615 4.05881 83.0422
lradius 25.9076
lwrist -7.0311
lhand -19.6897 2.0428
lfingers 7.12502
lthumb 6.63937 31.9187
rfemur -8.10441 15.3527 22.7422
rtibia 26.3931
rfoot -30.6244 -31.3707
rtoes -11.8212
lfemur -12.9114 -2.71421 -15.9602
ltibia 42.4206
lfoot -22.8885 15.2594
ltoes -22.6245
599
root 20.6306 15.3659 -1.12669 -544.202 -83.8036 541.985
lowerback 7.05998 1.49668 1.22029
upperback 3.99696 1.94106 -0.667712
thorax 0.230582 0.947666 -1.49999
lowerneck -5.69687 3.68435 7.83865
upperneck 0.227984 4.46749 -4.6907
head 1.37865 2.16734 -2.74466
rclavicle 1.0138e-014 -8.94531e-016
rhumerus -31.8027 18.7726 -89.9557
rradius 38.7306
rwrist -26.3973
rhand -17.5166 -2.3716
rfingers 7.12502
rthumb 8.73683 -32.1708
lclavicle 1.0138e-014 -8.94531e-016
lhumerus -28.6285 5.70053 82.1209
lradius 25.6741
lwrist -7.31606
lhand -19.0856 3.21736
lfingers 7.12502
lthumb 7.22253 33.0741
rfemur -8.06117 15.5537 22.6834
rtibia 26.4455
rfoot -30.8188 -31.3784
rtoes -11.894
lfemur -12.8319 -2.98632 -16.0109
ltibia 41.0267
lfoot -23.5591 16.1197
ltoes -22.6187
600
root 20.5916 15.3657 -1.12152 -543.497 -83.6822 541.378
lowerback 6.96509 1.48991 1.13662
upperback 3.97234 1.92776 -0.698828
thorax 0.25525 0.94069 -1.48192
lowerneck -5.70176 3.70595 7.91103
upperneck 0.290839 4.49387 -4.73817
head 1.40568 2.18088 -2.77309
rclavicle -6.80837e-015 -1.39149e-015
rhumerus -31.7653 18.8623 -89.9245
rradius 38.7035
rwrist -26.4045
rhand -17.6508 -2.21662
rfingers 7.12502
rthumb 8.60732 -32.0212
lclavicle -6.80837e-015 -1.39149e-015
lhumerus -29.2895 7.25318 81.2408
lradius 25.4358
lwrist -7.54103
lhand -18.5523 4.68706
lfingers 7.12502
lthumb 7.73732 34.5255
rfemur -8.05023 15.6737 22.6026
rtibia 26.517
rfoot -30.9186 -31.3558
rtoes -12.1126
lfemur -12.67 -3.44076 -16.0803
ltibia 39.4238
lfoot -24.0246 16.8147
ltoes -22.6485
601
root 20.5529 15.3636 -1.11206 -543.294 -83.5676 541.28
lowerback 6.85236 1.47279 1.06862
upperback 3.9408 1.90237 -0.699214
thorax 0.281737 0.927788 -1.4399
lowerneck -5.69271 3.7426 7.98993
upperneck 0.341832 4.54129 -4.8044
head 1.42874 2.20466 -2.80853
rclavicle -2.70347e-014 4.77083e-015
rhumerus -31.7746 18.9759 -89.8914
rradius 38.7609
rwrist -26.4985
rhand -17.7493 -2.08406
rfingers 7.12502
rthumb 8.51231 -31.8925
lclavicle -2.70347e-014 4.77083e-015
lhumerus -29.9152 8.72142 80.4108
lradius 25.1749
lwrist -7.75631
lhand -18.118 6.02148
lfingers 7.12502
lthumb 8.15644 35.8441
rfemur -8.0491 15.7331 22.554
rtibia 26.5818
rfoot -30.9574 -31.3067
rtoes -12.4
lfemur -12.4494 -4.07311 -16.119
ltibia 37.7265
lfoot -24.0877 17.377
ltoes -23.0093
602
root 20.5159 15.3596 -1.09846 -543.824 -83.466 541.915
lowerback 6.73804 1.44465 1.04495
upperback 3.90503 1.86543 -0.664718
thorax 0.304779 0.909552 -1.38626
lowerneck -5.65036 3.78098 8.05767
upperneck 0.359746 4.59342 -4.8584
head 1.43468 2.2309 -2.83806
rclavicle -2.08475e-014 -3.18055e-015
rhumerus -31.8194 19.0811 -89.8522
rradius 38.8719
rwrist -26.6383
rhand -17.81 -1.94853
rfingers 7.12502
rthumb 8.45369 -31.7593
lclavicle -2.08475e-014 -3.18055e-015
lhumerus -30.4912 10.0919 79.6366
lradius 24.8806
lwrist -8.03615
lhand -17.8038 6.93136
lfingers 7.12502
lthumb 8.45969 36.7419
rfemur -8.03089 15.7634 22.5763
rtibia 26.6136
rfoot -30.9907 -31.225
rtoes -12.6348
lfemur -12.1826 -4.8904 -16.0888
ltibia 36.0733
lfoot -23.8036 17.7051
ltoes -22.7036
603
root 20.4814 15.3547 -1.0811 -545.049 -83.379 543.232
lowerback 6.6396 1.40858 1.06432
upperback 3.86777 1.82061 -0.600457
thorax 0.317808 0.887689 -1.32624
lowerneck -5.57663 3.82165 8.12748
upperneck 0.338175 4.64964 -4.89542
head 1.42194 2.25928 -2.86257
rclavicle 1.41386e-014 -2.38542e-015
rhumerus -31.8884 19.1377 -89.8051
rradius 38.9976
rwrist -26.7645
rhand -17.8338 -1.78395
rfingers 7.12502
rthumb 8.43073 -31.5957
lclavicle 1.41386e-014 -2.38542e-015
lhumerus -30.9979 11.3518 78.925
lradius 24.5457
lwrist -8.43703
lhand -17.5977 7.37821
lfingers 7.12502
lthumb 8.65856 37.1806
rfemur -7.97719 15.8124 22.6766
rtibia 26.5918
rfoot -31.0116 -31.1873
rtoes -12.8229
lfemur -11.8656 -5.82662 -15.9953
ltibia 34.6011
lfoot -23.2556 17.9739
ltoes -21.8748
604
root 20.4497 15.3509 -1.06061 -546.795 -83.2983 545.049
lowerback 6.56157 1.36984 1.11087
upperback 3.83393 1.77359 -0.517154
thorax 0.323383 0.864802 -1.26236
lowerneck -5.48156 3.84878 8.16727
upperneck 0.289292 4.68933 -4.87094
head 1.39219 2.2801 -2.86154
rclavicle 1.08586e-014 -7.95139e-016
rhumerus -31.9643 19.1148 -89.7558
rradius 39.0998
rwrist -26.8401
rhand -17.8368 -1.61047
rfingers 7.12502
rthumb 8.42781 -31.4223
lclavicle 1.08586e-014 -7.95139e-016
lhumerus -31.3979 12.5024 78.28
lradius 24.1472
lwrist -8.97658
lhand -17.4782 7.51924
lfingers 7.12502
lthumb 8.77391 37.3169
rfemur -7.88104 15.9319 22.8445
rtibia 26.5098
rfoot -31.0156 -31.2723
rtoes -13.0168
lfemur -11.5084 -6.77894 -15.8627
ltibia 33.4057
lfoot -22.6158 18.3471
ltoes -20.6681
